<mxfile host="app.diagrams.net" modified="2023-03-22T08:54:52.243Z" agent="5.0 (Windows NT 10.0; Win64; x64) AppleWebKit/537.36 (KHTML, like Gecko) Chrome/111.0.0.0 Safari/537.36 Edg/111.0.1661.41" etag="-a-QoOewInP_NzAW0qWG" version="21.0.8" type="github">
  <diagram name="Page-1" id="929967ad-93f9-6ef4-fab6-5d389245f69c">
    <mxGraphModel dx="950" dy="527" grid="1" gridSize="10" guides="1" tooltips="1" connect="1" arrows="1" fold="1" page="1" pageScale="1.5" pageWidth="1169" pageHeight="826" background="none" math="0" shadow="0">
      <root>
        <mxCell id="0" style=";html=1;" />
        <mxCell id="1" style=";html=1;" parent="0" />
        <mxCell id="eIwYXYLHUi0qYOk802lU-5" value="Person" style="html=1;whiteSpace=wrap;" vertex="1" parent="1">
          <mxGeometry x="1230" y="650" width="110" height="40" as="geometry" />
        </mxCell>
        <mxCell id="eIwYXYLHUi0qYOk802lU-6" value="Employee" style="html=1;whiteSpace=wrap;" vertex="1" parent="1">
          <mxGeometry x="1080" y="570" width="110" height="40" as="geometry" />
        </mxCell>
        <mxCell id="eIwYXYLHUi0qYOk802lU-7" value="Manager" style="html=1;whiteSpace=wrap;" vertex="1" parent="1">
          <mxGeometry x="930" y="570" width="110" height="40" as="geometry" />
        </mxCell>
        <mxCell id="eIwYXYLHUi0qYOk802lU-8" value="Administrative&lt;br&gt;Assistant" style="html=1;whiteSpace=wrap;" vertex="1" parent="1">
          <mxGeometry x="930" y="650" width="110" height="40" as="geometry" />
        </mxCell>
        <mxCell id="eIwYXYLHUi0qYOk802lU-9" value="Company" style="html=1;whiteSpace=wrap;" vertex="1" parent="1">
          <mxGeometry x="1230" y="500" width="110" height="40" as="geometry" />
        </mxCell>
        <mxCell id="eIwYXYLHUi0qYOk802lU-10" value="BoarderOf&lt;br&gt;Directors" style="html=1;whiteSpace=wrap;" vertex="1" parent="1">
          <mxGeometry x="1230" y="570" width="110" height="40" as="geometry" />
        </mxCell>
        <mxCell id="eIwYXYLHUi0qYOk802lU-12" value="" style="fontSize=12;html=1;endArrow=ERmany;endFill=0;rounded=0;exitX=0;exitY=0.5;exitDx=0;exitDy=0;startArrow=ERone;startFill=0;entryX=0.5;entryY=0;entryDx=0;entryDy=0;edgeStyle=orthogonalEdgeStyle;" edge="1" parent="1" source="eIwYXYLHUi0qYOk802lU-9" target="eIwYXYLHUi0qYOk802lU-6">
          <mxGeometry width="100" height="100" relative="1" as="geometry">
            <mxPoint x="1130" y="560" as="sourcePoint" />
            <mxPoint x="1230" y="460" as="targetPoint" />
          </mxGeometry>
        </mxCell>
        <mxCell id="eIwYXYLHUi0qYOk802lU-17" value="" style="fontSize=12;html=1;endArrow=ERmany;endFill=0;rounded=0;exitX=0.5;exitY=1;exitDx=0;exitDy=0;startArrow=ERoneToMany;startFill=0;entryX=0.5;entryY=0;entryDx=0;entryDy=0;" edge="1" parent="1" source="eIwYXYLHUi0qYOk802lU-7" target="eIwYXYLHUi0qYOk802lU-8">
          <mxGeometry width="100" height="100" relative="1" as="geometry">
            <mxPoint x="1240" y="520" as="sourcePoint" />
            <mxPoint x="1120" y="520" as="targetPoint" />
          </mxGeometry>
        </mxCell>
        <mxCell id="eIwYXYLHUi0qYOk802lU-19" value="" style="fontSize=12;html=1;endArrow=ERone;startArrow=ERone;rounded=0;entryX=0.5;entryY=1;entryDx=0;entryDy=0;exitX=0.5;exitY=0;exitDx=0;exitDy=0;startFill=0;endFill=0;" edge="1" parent="1" source="eIwYXYLHUi0qYOk802lU-10" target="eIwYXYLHUi0qYOk802lU-9">
          <mxGeometry width="100" height="100" relative="1" as="geometry">
            <mxPoint x="1130" y="560" as="sourcePoint" />
            <mxPoint x="1230" y="460" as="targetPoint" />
          </mxGeometry>
        </mxCell>
        <mxCell id="eIwYXYLHUi0qYOk802lU-20" value="Office" style="html=1;whiteSpace=wrap;" vertex="1" parent="1">
          <mxGeometry x="1080" y="650" width="110" height="40" as="geometry" />
        </mxCell>
        <mxCell id="eIwYXYLHUi0qYOk802lU-21" value="" style="fontSize=12;html=1;endArrow=ERmany;endFill=0;rounded=0;startArrow=ERzeroToOne;startFill=0;entryX=0.5;entryY=1;entryDx=0;entryDy=0;exitX=0.5;exitY=0;exitDx=0;exitDy=0;" edge="1" parent="1" source="eIwYXYLHUi0qYOk802lU-20" target="eIwYXYLHUi0qYOk802lU-6">
          <mxGeometry width="100" height="100" relative="1" as="geometry">
            <mxPoint x="1055" y="450" as="sourcePoint" />
            <mxPoint x="1120" y="520" as="targetPoint" />
          </mxGeometry>
        </mxCell>
        <mxCell id="eIwYXYLHUi0qYOk802lU-22" value="" style="fontSize=12;html=1;endArrow=ERmany;endFill=0;rounded=0;exitX=0.5;exitY=0;exitDx=0;exitDy=0;startArrow=ERzeroToMany;startFill=0;entryX=0.5;entryY=1;entryDx=0;entryDy=0;" edge="1" parent="1" source="eIwYXYLHUi0qYOk802lU-5" target="eIwYXYLHUi0qYOk802lU-10">
          <mxGeometry width="100" height="100" relative="1" as="geometry">
            <mxPoint x="1240" y="520" as="sourcePoint" />
            <mxPoint x="1120" y="520" as="targetPoint" />
          </mxGeometry>
        </mxCell>
        <mxCell id="eIwYXYLHUi0qYOk802lU-25" value="0, 3...8" style="text;html=1;strokeColor=none;fillColor=none;align=center;verticalAlign=middle;whiteSpace=wrap;rounded=0;" vertex="1" parent="1">
          <mxGeometry x="1280" y="640" width="60" height="10" as="geometry" />
        </mxCell>
      </root>
    </mxGraphModel>
  </diagram>
</mxfile>
